# xmcd CD database file
#
# Track frame offsets:
#	183
#	16928
#	29520
#	52265
#	66240
#	78638
#	96110
#	123033
#	135780
#	150540
#	169848
#	193393
#	213883
#	238058
#
# Disc length: 3453 seconds
#
# Revision: 0
# Processed by: cddbd v1.4PL0 Copyright (c) Steve Scherf et al.
# Submitted via: CDex 1.50beta9
#
DISCID=bc0d7b0e
DTITLE=Various Artist  - Class Irish Country
DYEAR=1989
DGENRE=Country
TTITLE0=Raglan Roud - Jim McCann
TTITLE1=Little Grey Home In The West - Paddy Reilly
TTITLE2=Flight Of Earls - Dubin City Ramblers
TTITLE3=Wild Rover - The Dubiners
TTITLE4=Mouth Music - Dolores Keane
TTITLE5=Red Is The Rose - Tommy Makem and Liam Clancy
TTITLE6=The Green Fields Of France - The Fureys and Davey Arthur
TTITLE7=McAlpine's Fusiliers - The Dubliners
TTITLE8=Maggie - The Fureys and Davey Arthur
TTITLE9=Sweet Forget Me Not - The Morriseys
TTITLE10=Dublin In The Rare Old Time - Brendan Grace
TTITLE11=The Fields Of Athenry - Roly Donirls
TTITLE12=The Setting - Ral[h McTell
TTITLE13=Song For Ireland - De Danann
EXTD=YEAR: 1989
EXTT0=
EXTT1=
EXTT2=
EXTT3=
EXTT4=
EXTT5=
EXTT6=
EXTT7=
EXTT8=
EXTT9=
EXTT10=
EXTT11=
EXTT12=
EXTT13=
PLAYORDER=
